<svg id="svg" version="1.1" xmlns="http://www.w3.org/2000/svg" xmlns:xlink="http://www.w3.org/1999/xlink" width="400" height="443" viewBox="0, 0, 400,443"><g id="svgg"><path id="path0" d="M194.331 13.566 C 191.363 21.046,188.881 27.222,188.816 27.290 C 188.751 27.358,187.003 26.661,184.932 25.742 C 165.402 17.075,144.587 18.364,127.585 29.293 C 124.999 30.955,123.794 32.073,125.149 31.553 C 125.414 31.451,127.817 31.198,130.489 30.990 C 142.243 30.074,155.097 32.580,167.000 38.107 L 168.833 38.959 166.833 38.729 C 161.757 38.147,142.346 38.498,137.500 39.260 C 115.483 42.720,98.617 52.425,84.765 69.603 C 81.660 73.454,81.694 73.480,86.358 70.832 C 102.614 61.606,121.532 57.334,142.395 58.178 L 148.446 58.423 142.806 60.320 C 113.823 70.071,95.503 84.949,83.684 108.333 C 79.115 117.374,73.162 133.915,75.868 130.052 C 86.315 115.137,104.428 99.799,121.959 91.022 C 127.648 88.174,140.231 83.004,139.128 83.968 C 138.966 84.110,137.608 85.076,136.111 86.116 C 106.113 106.950,90.426 134.006,86.170 172.250 C 85.949 174.240,85.936 174.257,89.146 168.315 C 101.171 146.052,116.468 128.203,137.109 112.348 L 140.719 109.576 137.986 113.204 C 115.702 142.794,106.671 179.931,112.784 216.833 C 113.289 219.880,113.293 219.875,114.497 214.500 C 120.333 188.454,131.988 163.694,149.017 141.167 C 152.377 136.722,156.333 131.793,156.333 132.052 C 156.333 132.132,155.727 133.991,154.986 136.182 C 144.610 166.856,146.073 200.337,159.223 233.162 C 161.746 239.460,162.133 240.020,161.870 237.000 C 159.762 212.782,163.871 184.339,172.753 161.667 C 176.128 153.050,184.693 136.964,184.910 138.833 C 184.953 139.200,185.665 146.325,186.493 154.667 C 187.320 163.008,188.087 170.546,188.197 171.417 L 188.396 173.000 186.365 173.000 C 184.399 173.000,184.333 173.028,184.333 173.866 C 184.333 174.792,187.855 210.536,188.180 212.917 L 188.374 214.333 186.354 214.333 C 184.400 214.333,184.333 214.362,184.333 215.200 C 184.333 216.072,187.818 251.466,188.194 254.417 L 188.396 256.000 186.365 256.000 C 183.867 256.000,183.872 253.186,186.331 277.667 L 188.324 297.500 182.416 303.417 L 176.507 309.333 199.920 309.333 C 212.797 309.333,223.337 309.221,223.342 309.083 C 223.347 308.946,220.723 306.283,217.511 303.167 L 211.672 297.500 213.769 276.750 L 215.866 256.000 213.763 256.000 L 211.659 256.000 211.838 254.750 C 211.937 254.063,212.834 245.175,213.833 235.000 C 214.832 224.825,215.718 216.012,215.803 215.417 L 215.958 214.333 213.828 214.333 L 211.698 214.333 211.879 212.750 C 211.979 211.879,212.917 202.579,213.963 192.083 L 215.866 173.000 213.725 173.000 L 211.583 173.000 211.757 172.083 C 211.852 171.579,212.656 163.854,213.544 154.917 C 214.432 145.979,215.268 138.667,215.400 138.667 C 217.006 138.667,227.019 159.801,230.561 170.667 C 236.773 189.726,240.591 223.779,238.106 237.965 C 237.475 241.567,240.728 234.135,243.961 224.588 C 253.395 196.731,254.415 169.443,247.025 142.667 C 245.879 138.515,245.367 136.881,243.837 132.500 C 243.523 131.601,243.854 131.984,248.462 137.867 C 266.779 161.253,279.150 186.562,285.173 212.979 C 286.985 220.924,286.797 221.127,288.229 209.667 C 289.052 203.073,289.050 184.985,288.225 178.333 C 285.180 153.785,276.675 132.639,262.013 113.164 C 259.046 109.223,258.890 109.163,265.796 114.616 C 284.940 129.734,300.331 148.214,311.576 169.583 C 314.394 174.938,314.260 175.249,313.123 166.000 C 309.139 133.617,292.469 106.484,264.085 86.184 C 260.439 83.577,260.651 83.577,267.218 86.175 C 289.923 95.160,311.177 111.561,324.198 130.147 C 325.272 131.678,324.937 129.999,323.060 124.429 C 311.932 91.418,292.081 72.020,257.520 60.387 L 251.640 58.407 258.070 58.174 C 279.430 57.401,298.622 61.905,314.852 71.501 C 318.217 73.490,318.245 73.300,315.157 69.427 C 300.990 51.656,282.099 41.421,258.623 38.797 C 253.863 38.265,234.795 38.300,232.167 38.845 C 229.111 39.479,240.079 35.017,244.912 33.660 C 254.621 30.934,270.352 29.827,274.851 31.553 C 276.223 32.079,274.982 30.943,272.298 29.213 C 255.262 18.239,233.246 17.073,214.282 26.138 C 212.404 27.036,211.223 27.436,211.132 27.204 C 205.762 13.486,200.329 0.165,200.070 0.079 C 199.881 0.016,197.298 6.085,194.331 13.566 M34.855 273.515 C 25.250 274.509,15.212 276.628,5.430 279.727 C -0.823 281.709,-0.992 281.998,4.103 282.004 C 13.250 282.015,28.191 283.758,40.167 286.211 C 85.084 295.411,127.044 317.706,178.613 359.771 L 184.727 364.758 183.947 365.510 C 180.489 368.844,164.902 382.867,154.714 391.810 L 153.929 392.500 152.098 390.500 C 144.101 381.765,141.839 374.983,143.881 365.864 L 144.098 364.896 142.408 365.096 C 130.481 366.508,129.823 384.381,141.179 398.500 C 143.793 401.751,144.113 400.850,138.824 405.130 C 119.352 420.888,109.427 422.076,106.516 409.000 C 104.667 400.697,96.683 397.271,89.589 401.736 C 82.448 406.230,82.063 419.663,88.819 428.591 C 96.300 438.476,113.007 441.838,127.287 436.331 C 132.176 434.446,137.448 430.768,148.842 421.294 L 155.739 415.559 157.371 417.363 C 165.185 426.001,167.967 433.781,165.912 441.250 L 165.431 443.000 166.656 443.000 C 179.274 443.000,179.814 422.099,167.548 408.457 L 166.073 406.817 173.453 400.466 C 177.512 396.973,185.142 390.404,190.408 385.867 L 199.982 377.618 204.609 381.559 C 207.153 383.726,214.785 390.289,221.569 396.143 L 233.902 406.786 231.826 409.264 C 223.020 419.771,220.808 433.110,226.749 439.876 C 228.110 441.427,231.368 442.999,233.220 443.000 L 234.606 443.000 234.119 441.250 C 232.350 434.900,234.262 427.814,239.539 421.167 C 243.602 416.047,244.216 415.461,244.900 416.051 C 267.155 435.250,273.654 438.763,287.000 438.809 C 304.372 438.869,315.966 429.010,315.994 414.153 C 316.025 398.169,297.578 393.826,293.553 408.870 C 289.947 422.342,280.378 420.982,259.895 404.084 C 258.211 402.694,256.779 401.515,256.712 401.464 C 256.646 401.412,257.546 400.176,258.712 398.718 C 270.208 384.349,269.614 366.520,257.592 365.096 L 255.902 364.896 256.115 365.864 C 258.104 374.916,256.228 380.987,248.826 389.454 C 247.442 391.038,246.202 392.331,246.071 392.328 C 245.716 392.321,239.723 387.022,228.211 376.537 C 222.552 371.384,217.318 366.636,216.581 365.987 L 215.240 364.807 221.203 359.957 C 268.845 321.208,307.427 299.571,347.667 289.035 C 363.483 284.894,383.370 282.000,396.007 282.000 C 400.982 282.000,400.796 281.705,394.569 279.726 C 355.819 267.413,317.135 271.827,277.500 293.085 C 254.934 305.187,234.597 320.238,202.673 348.462 C 199.646 351.138,200.599 351.343,195.667 346.953 C 143.253 300.312,106.149 279.506,65.500 273.961 C 58.813 273.049,41.762 272.801,34.855 273.515 " stroke="none" fill="#046c34" fill-rule="evenodd"></path><path id="path1" d="" stroke="none" fill="#086c34" fill-rule="evenodd"></path><path id="path2" d="" stroke="none" fill="#086c34" fill-rule="evenodd"></path><path id="path3" d="" stroke="none" fill="#086c34" fill-rule="evenodd"></path><path id="path4" d="" stroke="none" fill="#086c34" fill-rule="evenodd"></path></g></svg>